<?xml version="1.0" encoding="UTF-8"?>
<svg id="Calque_1" data-name="Calque 1" xmlns="http://www.w3.org/2000/svg" viewBox="0 0 448.51 448.5">
  <defs>
    <style>
      .cls-1 {
        fill: #fff;
      }
    </style>
  </defs>
  <path class="cls-1" d="M327.61,33.24c13.23,16.1,10.84,24.18,32.98,33.29,20.36,8.37,37.25,12.48,52.11,30.56,45.06,54.83,47.09,162.97,9.01,221.84-7.16,11.07-17.83,20.7-23,32.69-4.52,10.5-5.81,22.5-9.91,33.2-16.29,42.53-59.06,42.93-97.57,48.44-19.66,2.81-39.74,13.34-58.93,14.76-32.06,2.37-83.47-3.32-106.73-27.6-16.84-17.58-19.24-35.89-43.41-47.33-16.7-7.9-32.55-12.65-46.46-25.87C7.75,320.65-1.45,259.64.18,222.78c1.34-30.18,15.12-43.43,27.06-68.16,8.26-17.1,9.33-37.01,14.33-55.28C57.19,42.34,122.57,14.52,175.79,4.45c43.22-8.17,121.19-8.47,151.81,28.78ZM153.15,413.71c18.43,10.38,58.22,13.64,79.13,11.84,12.05-1.04,25.42-7.33,37.06-10.57,25.3-7.03,73.21-4.53,90.8-25.11,11.72-13.72,11.46-32.71,18.48-48.45,6.01-13.48,16.32-22.31,24.11-34.28,31.95-49.11,30.75-136.66-.17-186.02-22.12-35.32-58.28-25.95-79.91-54.85-9.49-12.68-12.43-22.5-27.53-30.87-29.69-16.45-86.65-14.85-119.33-8.5-34.88,6.77-78.61,25.02-100.72,53.82-17.24,22.46-14.6,49.75-23.88,74.93s-27.35,39.91-28.54,67.58c-1.34,31.19,4.94,81.13,26.3,105.33,15.01,17,41.72,20.25,59.51,33.94,18.03,13.88,24.34,39.75,44.69,51.21Z"/>
  <path class="cls-1" d="M260.65,240.37c31.16-39.91,91.97-26.19,105,21.82,11.02,40.58-24.55,79.57-65.9,73.94-45.87-6.25-67.59-59.27-39.1-95.76ZM334.8,239.37c-26-20.19-69.81-3.83-72.2,31.02-2.57,37.51,28.79,64.33,65.03,47.92,32.04-14.51,33.79-58.27,7.17-78.94Z"/>
  <path class="cls-1" d="M116.94,216.88c63.24-2.46,72.89,97.42,3.91,102.25-65.4,4.58-74.03-99.52-3.91-102.25ZM114.24,231.24c-50.65,4.91-38.64,83.8,11.25,73.21,46.16-9.8,34.91-77.69-11.25-73.21Z"/>
  <path class="cls-1" d="M166.29,139.67c-27.19-28.87-13.53-79.99,27.47-86.27,41.29-6.33,68.72,30.79,55.7,69.14-11.82,34.8-58.54,43.3-83.17,17.14ZM201.42,66.44c-27.42,1.75-47.07,34.31-30.01,58.01,30.1,41.82,88.62-3.97,61.73-41.94-7.2-10.16-19.06-16.88-31.73-16.07Z"/>
  <path class="cls-1" d="M222.54,340.37c37.85-2.97,41.74,55.37,4.35,58.24-37.37,2.86-42.94-55.21-4.35-58.24ZM213.8,358.36c-8,8.39-3.71,24.76,8.58,25.91,21.97,2.04,21.5-28.54,4.08-30.13-4.54-.41-9.45.84-12.67,4.22Z"/>
  <path class="cls-1" d="M349.69,111.78c42.8-4.83,42.29,61.72-.46,56.34-30.51-3.84-30.77-52.82.46-56.34ZM352.39,125.71c-18.46,2.01-15.97,29.97,3.02,28.6,17.91-1.29,16.18-30.69-3.02-28.6Z"/>
  <path class="cls-1" d="M271.03,198.43c9.11-1.9,13.08,8.86,4.32,13.74-4.71,2.62-8.69,3.86-13.32,7.34-11.63,8.75-21.96,24.88-24.46,39.33-.88,5.08.12,12.85-2.72,17.04-3.66,5.4-11.81,2-12.63-3.72-.45-3.18.43-9.52.98-12.86,4.02-24.36,20.55-47.33,42.62-58.45,1.1-.55,4.29-2.23,5.21-2.42Z"/>
  <path class="cls-1" d="M98.01,127.98c3.07,3.07,1.53,10.8.84,14.68-3.22,18.07-13.17,44.11-26.29,57.26-3.55,3.55-11.31,9.27-15.75,4.03-5.69-6.71,4.97-13.38,8.77-17.74,7.98-9.17,14.72-23.79,17.36-35.64,1.29-5.78,1.06-16,3.89-20.81,1.99-3.37,8.37-4.58,11.17-1.78Z"/>
  <path class="cls-1" d="M347.86,331.35c6.48-1.48,11.09,5.66,7.52,11.11-1.47,2.24-6.5,5.79-8.89,7.28-13.9,8.66-33.37,11.08-49.5,9.8-4.62-.37-13.86-.91-17.08-4.04-5.07-4.94-.76-11.09,5.39-11.67,6.56-.62,15.96,1.59,22.89,1.81,10.97.35,22.6-2.09,31.75-8.27,2.07-1.4,5.76-5.53,7.9-6.02Z"/>
  <path class="cls-1" d="M245.88,46.66c4.57-.25,11.46,7.3,14.27,10.66,10.22,12.22,16.94,28.15,17.74,44.24.32,6.39-1.09,19.73-10.64,15.58-5.82-2.53-3.58-12.08-3.74-16.92-.35-10.8-6.7-26.52-13.94-34.57-3.08-3.43-11.09-7.83-10.23-12.92.46-2.74,3.72-5.91,6.53-6.06Z"/>
  <path class="cls-1" d="M295.76,192.61c3.53-.44,9.9-.65,12.84,1.31,5.37,3.57,4.2,9.52-1.55,11.77-4.57,1.79-18.64,2.72-20.85-2.86-2.5-6.32,4.31-9.57,9.56-10.22Z"/>
</svg>