<?xml version="1.0" encoding="UTF-8"?>
<svg id="Calque_1" data-name="Calque 1" xmlns="http://www.w3.org/2000/svg" viewBox="0 0 448.51 448.5">
  <defs>
    <style>
      .cls-1 {
        fill: #fff;
      }
    </style>
  </defs>
  <path class="cls-1" d="M209.31.43c31.16-1.65,83.11.55,106.6,23.81,7.74,7.66,12.86,19.1,19.62,27.38,24.22,29.6,60.47,17.6,85.39,56.61,35.5,55.56,37.2,149.99,2.39,206.22-10.69,17.27-23.33,25.5-30.07,45.93-5.31,16.07-7.31,36.66-19.69,49.31-19.2,19.62-62.41,18.94-88.08,23.92-18.68,3.62-37.47,13.21-56.43,14.57-21.93,1.58-61.93-2.5-81.58-12.49-24.51-12.46-30.76-40.91-51.48-57.52-19.89-15.94-49.29-18.52-66.99-39.01C5.95,312.46-2.28,253.85.53,219.65c2.11-25.78,19.71-44.11,29.45-66.55,12.97-29.87,8.23-64.21,30.02-89.98C94.74,22.04,157.08,3.2,209.31.43ZM248.17,26.42c-3.72.2-7.1,3.87-7.45,7.44-.59,6.02,6.98,9.53,10.76,13.79,8.88,10.02,14.62,23.82,15.9,37.1.6,6.17-2.31,18.61,5.08,20.94s10.5-3.88,11.08-10.03c1.24-13.23-2.84-30.42-8.85-42.22-3.52-6.91-18.47-27.45-26.53-27.02ZM197.32,33.42c-73.62,3.08-69.8,115.9,4.73,113.75,73.7-2.12,71.39-116.93-4.73-113.75ZM362.25,99.37c-34.37,5.42-33.32,59.68,2.77,62.74,46.92,3.98,45.45-70.35-2.77-62.74ZM84.21,117.42c-3.21-3.79-10.98-2.67-13.15,1.76s-3.12,18.73-4.83,25.17c-3.48,13.05-9.22,25.74-17.74,36.26-2.31,2.85-10.9,10.46-11.52,12.47-2.98,9.57,5.36,14.39,13.05,9.06,16.81-11.66,30.24-44.38,34.03-63.97.99-5.11,3.62-16.67.17-20.75ZM310.34,188.38c-6.96.17-23.09,2.24-16.87,13.3,2.96,5.27,19.93,4.13,24.6,1.5,7.96-4.48,3.51-15.07-7.73-14.8ZM276.25,195.34c-2.27.45-8.28,4-10.66,5.37-22.4,12.85-39.66,38.34-42.96,64.04-.32,2.46-1.09,10.61-.9,12.65.42,4.69,5.32,8.54,10.05,7.56,8.02-1.67,5.94-13.09,7.01-19.06,3.78-21.21,15.18-39.08,33.43-50.57,3.69-2.32,11.92-4.67,13.55-8.45,3.09-7.18-2.08-13.03-9.5-11.54ZM100.31,216.43c-77.76,7.7-60.24,129.58,19.05,112.05,67.5-14.93,52.47-119.13-19.05-112.05ZM309.3,216.43c-52.64,5.37-77.54,69.64-43.31,109.72,34.15,39.97,100.23,26.31,114.77-24.25,13.31-46.28-23.74-90.33-71.47-85.47ZM361.24,343.33c-2.79.62-6.28,4.99-9.2,6.83-20.25,12.78-36.49,7.91-58.05,6.97-12.84-.56-13.43,12.38-4.51,15.55,3.3,1.17,13.65,2.22,17.55,2.45,17.05,1,36.85-1.47,51.79-10.19,2.8-1.63,10.2-6.79,11.56-9.43,3.59-6.94-1.48-13.87-9.14-12.18ZM220.29,353.42c-41.5,4.89-34.76,69.76,8.61,64.6,40.73-4.84,35.08-69.75-8.61-64.6Z"/>
  <path class="cls-1" d="M311.31,232.43c59.34-6.14,77.89,77.04,24.47,97.47-72.57,27.75-98.48-89.81-24.47-97.47Z"/>
  <path class="cls-1" d="M101.29,232.41c50.67-5.88,63.95,68.03,15.23,80.23-56.58,14.17-71.34-73.72-15.23-80.23Z"/>
  <path class="cls-1" d="M229.16,61.48c37.55,38.29-20.2,95-57.69,58.19-38.92-38.23,19.95-96.66,57.69-58.19Z"/>
  <path class="cls-1" d="M221.25,369.37c23.18-3.75,26.06,30.25,5.67,32.68-22.11,2.63-24.87-29.57-5.67-32.68Z"/>
  <path class="cls-1" d="M364.24,115.37c24.94-5.16,26.16,33.6,1.87,30.69-16.79-2.01-17.56-27.44-1.87-30.69Z"/>
</svg>